<svg width="600" height="338" viewBox="0 0 600 338" xmlns="http://www.w3.org/2000/svg">
  <defs>
    <linearGradient id="art_editorial" x1="0" y1="0" x2="1" y2="1">
      <stop offset="0%" stop-color="#34495e"/>
      <stop offset="100%" stop-color="#2c3e50"/>
    </linearGradient>
    <linearGradient id="card_grad" x1="0" y1="0" x2="1" y2="1">
      <stop offset="0%" stop-color="#3498db"/>
      <stop offset="100%" stop-color="#2980b9"/>
    </linearGradient>
  </defs>
  <!-- Browser Frame -->
  <rect width="600" height="338" fill="#FFFFFF"/>
  <rect width="600" height="24" fill="#E1E4E8"/>
  <circle cx="16" cy="12" r="4" fill="#FF5F56"/>
  <circle cx="28" cy="12" r="4" fill="#FFBD2E"/>
  <circle cx="40" cy="12" r="4" fill="#27C93F"/>
  
  <!-- Left Content Area (Editorial Layout) -->
  <rect x="0" y="24" width="410" height="314" fill="#FFFFFF"/>
  <text x="30" y="65" fill="#3b3f48" font-family="'Source Sans Pro', serif" font-size="24" font-weight="900">Hi, I’m Editorial by HTML&amp;HTML</text>
  <text x="30" y="85" fill="#e7746f" font-family="sans-serif" font-size="12" font-weight="bold">A FREE AND FULLY RESPONSIVE SITE TEMPLATE</text>
  
  <rect x="30" y="105" width="220" height="80" rx="3" fill="url(#card_grad)"/>
  <rect x="260" y="105" width="130" height="8" rx="2" fill="#676d79"/>
  <rect x="260" y="120" width="120" height="6" rx="2" fill="#DEE0E3"/>
  <rect x="260" y="132" width="130" height="6" rx="2" fill="#DEE0E3"/>
  <rect x="260" y="144" width="110" height="6" rx="2" fill="#DEE0E3"/>
  <rect x="260" y="162" width="70" height="22" rx="3" fill="#e7746f"/>
  <text x="295" y="176" text-anchor="middle" fill="#FFFFFF" font-family="sans-serif" font-size="9" font-weight="bold">MORE</text>

  <!-- Editorial 2-Column Cards Below -->
  <rect x="30" y="200" width="175" height="120" rx="3" fill="#F4F5F7" stroke="#DEE0E3"/>
  <rect x="30" y="200" width="175" height="55" rx="3" fill="#16a085"/>
  <text x="40" y="272" fill="#3b3f48" font-family="sans-serif" font-size="12" font-weight="bold">SED ET PHARETRA</text>
  <rect x="40" y="285" width="140" height="5" rx="2" fill="#C4C9D2"/>
  <rect x="40" y="295" width="110" height="5" rx="2" fill="#C4C9D2"/>

  <rect x="220" y="200" width="175" height="120" rx="3" fill="#F4F5F7" stroke="#DEE0E3"/>
  <rect x="220" y="200" width="175" height="55" rx="3" fill="#e67e22"/>
  <text x="230" y="272" fill="#3b3f48" font-family="sans-serif" font-size="12" font-weight="bold">ETIAM MAGNA LEO</text>
  <rect x="230" y="285" width="140" height="5" rx="2" fill="#C4C9D2"/>
  <rect x="230" y="295" width="110" height="5" rx="2" fill="#C4C9D2"/>

  <!-- Right Sidebar Area -->
  <rect x="410" y="24" width="190" height="314" fill="#F7F8FA" stroke="#DEE0E3"/>
  <rect x="425" y="45" width="160" height="24" rx="3" fill="#FFFFFF" stroke="#DEE0E3"/>
  <text x="435" y="61" fill="#9299a8" font-family="sans-serif" font-size="10">Search...</text>
  
  <text x="425" y="100" fill="#3b3f48" font-family="sans-serif" font-size="12" font-weight="bold">MENU</text>
  <line x1="425" y1="110" x2="585" y2="110" stroke="#DEE0E3"/>
  <text x="425" y="130" fill="#e7746f" font-family="sans-serif" font-size="11">Homepage</text>
  <text x="425" y="152" fill="#676d79" font-family="sans-serif" font-size="11">Generic Page</text>
  <text x="425" y="174" fill="#676d79" font-family="sans-serif" font-size="11">Elements Reference</text>
  
  <text x="425" y="215" fill="#3b3f48" font-family="sans-serif" font-size="12" font-weight="bold">GET IN TOUCH</text>
  <line x1="425" y1="225" x2="585" y2="225" stroke="#DEE0E3"/>
  <text x="425" y="245" fill="#676d79" font-family="sans-serif" font-size="10">information@untitled.tld</text>
  <text x="425" y="265" fill="#676d79" font-family="sans-serif" font-size="10">(000) 000-0000</text>
</svg>
