<svg xmlns="http://www.w3.org/2000/svg" viewBox="0 0 1200 675" width="1200" height="675" role="img" aria-labelledby="t-2025-06-01-the-new-search-console-insights-report-is-here-c0ca91217f d-2025-06-01-the-new-search-console-insights-report-is-here-c0ca91217f">
  <title id="t-2025-06-01-the-new-search-console-insights-report-is-here-c0ca91217f">HTML&amp;HTML AI Search Intelligence — RAG RETRIEVAL</title>
  <desc id="d-2025-06-01-the-new-search-console-insights-report-is-here-c0ca91217f">Symmetrical vector blueprint for The new Search Console Insights report is here: AI Search and Technical Web Architecture Analysis</desc>
  <defs>
    <linearGradient id="bg-2025-06-01-the-new-search-console-insights-report-is-here-c0ca91217f" x1="0%" y1="0%" x2="100%" y2="100%">
      <stop offset="0%" stop-color="#07080A"/>
      <stop offset="50%" stop-color="#0A0C10"/>
      <stop offset="100%" stop-color="#0D1017"/>
    </linearGradient>
    <radialGradient id="glow-2025-06-01-the-new-search-console-insights-report-is-here-c0ca91217f" cx="50%" cy="50%" r="50%">
      <stop offset="0%" stop-color="#F43F5E" stop-opacity="0.32"/>
      <stop offset="60%" stop-color="#38BDF8" stop-opacity="0.08"/>
      <stop offset="100%" stop-color="#07080A" stop-opacity="0"/>
    </radialGradient>
  </defs>

  <rect width="1200" height="675" fill="url(#bg-2025-06-01-the-new-search-console-insights-report-is-here-c0ca91217f)"/>
  <line x1="0" y1="337.5" x2="1200" y2="337.5" stroke="rgba(255,255,255,0.04)" stroke-width="1" stroke-dasharray="4 8"/>
  <line x1="600" y1="0" x2="600" y2="675" stroke="rgba(255,255,255,0.05)" stroke-width="1" stroke-dasharray="4 8"/>

  <circle cx="600" cy="337.5" r="252" fill="none" stroke="rgba(255,255,255,0.025)" stroke-width="1"/>
  <circle cx="600" cy="337.5" r="212" fill="none" stroke="rgba(255,255,255,0.04)" stroke-width="1" stroke-dasharray="6 6"/>
  <circle cx="600" cy="337.5" r="119" fill="url(#glow-2025-06-01-the-new-search-console-insights-report-is-here-c0ca91217f)" stroke="rgba(244, 63, 94, 0.25)" stroke-width="1.5"/>
  <circle cx="600" cy="337.5" r="67" fill="none" stroke="#F43F5E" stroke-width="2"/>
  <circle cx="600" cy="337.5" r="7" fill="#F43F5E"/>

  <line x1="481" y1="337.5" x2="313" y2="337.5" stroke="#F43F5E" stroke-width="1.5"/>
  <line x1="719" y1="337.5" x2="887" y2="337.5" stroke="#F43F5E" stroke-width="1.5"/>
  <circle cx="313" cy="337.5" r="5" fill="#38BDF8"/>
  <circle cx="887" cy="337.5" r="5" fill="#38BDF8"/>

  <line x1="600" y1="218.5" x2="600" y2="75.5" stroke="#38BDF8" stroke-width="1.5"/>
  <line x1="600" y1="456.5" x2="600" y2="599.5" stroke="#38BDF8" stroke-width="1.5"/>
  <circle cx="600" cy="75.5" r="4" fill="#F43F5E"/>
  <circle cx="600" cy="599.5" r="4" fill="#F43F5E"/>

  <line x1="552.6" y1="290.1" x2="475.1" y2="212.6" stroke="rgba(255,255,255,0.2)" stroke-width="1.2"/>
  <line x1="647.4" y1="290.1" x2="725.0" y2="212.6" stroke="rgba(255,255,255,0.2)" stroke-width="1.2"/>
  <line x1="552.6" y1="384.9" x2="475.1" y2="462.4" stroke="rgba(255,255,255,0.2)" stroke-width="1.2"/>
  <line x1="647.4" y1="384.9" x2="725.0" y2="462.4" stroke="rgba(255,255,255,0.2)" stroke-width="1.2"/>

  <circle cx="475.1" cy="212.6" r="4" fill="#F43F5E"/>
  <circle cx="725.0" cy="212.6" r="4" fill="#F43F5E"/>
  <circle cx="475.1" cy="462.4" r="4" fill="#38BDF8"/>
  <circle cx="725.0" cy="462.4" r="4" fill="#38BDF8"/>

  <polygon points="540.5,218.5 659.5,218.5 719.0,337.5 659.5,456.5 540.5,456.5 481.0,337.5" fill="none" stroke="rgba(255,255,255,0.06)" stroke-width="1"/>

  <path d="M48 68 V48 H68 M1132 48 H1152 V68 M1152 607 V627 H1132 M68 627 H48 V607" stroke="rgba(255,255,255,0.18)" stroke-width="1.5" fill="none"/>

  <text x="56" y="88" font-family="ui-monospace,Menlo,monospace" font-size="11" font-weight="700" letter-spacing="2" fill="#F43F5E">[ RAG RETRIEVAL // SYMMETRIC VECTOR CORE ]</text>
  <text x="1144" y="88" font-family="ui-monospace,Menlo,monospace" font-size="11" text-anchor="end" letter-spacing="1.5" fill="rgba(255,255,255,0.4)">REF-900CB62F</text>
  <text x="600" y="574" font-family="-apple-system,BlinkMacSystemFont,Segoe UI,Roboto,sans-serif" font-size="19" font-weight="600" text-anchor="middle" fill="#F8FAFC">The new Search Console Insights report is here: AI Search and Te</text>
  <text x="600" y="608" font-family="ui-monospace,Menlo,monospace" font-size="11" text-anchor="middle" letter-spacing="3" fill="rgba(255,255,255,0.45)">HTML&amp;HTML AI SEARCH INTELLIGENCE // 2026-09-06</text>
</svg>