<svg xmlns="http://www.w3.org/2000/svg" viewBox="0 0 1200 675" width="1200" height="675" role="img" aria-labelledby="t-2025-01-01-search-central-live-is-returning-to-brazil-1a9b6e8364 d-2025-01-01-search-central-live-is-returning-to-brazil-1a9b6e8364">
  <title id="t-2025-01-01-search-central-live-is-returning-to-brazil-1a9b6e8364">HTML&amp;HTML AI Search Intelligence — EEAT CONSENSUS</title>
  <desc id="d-2025-01-01-search-central-live-is-returning-to-brazil-1a9b6e8364">Symmetrical vector blueprint for Search Central Live is returning to Brazil: AI Search and Technical Web Architecture Analysis</desc>
  <defs>
    <linearGradient id="bg-2025-01-01-search-central-live-is-returning-to-brazil-1a9b6e8364" x1="0%" y1="0%" x2="100%" y2="100%">
      <stop offset="0%" stop-color="#07080A"/>
      <stop offset="50%" stop-color="#0A0C10"/>
      <stop offset="100%" stop-color="#0D1017"/>
    </linearGradient>
    <radialGradient id="glow-2025-01-01-search-central-live-is-returning-to-brazil-1a9b6e8364" cx="50%" cy="50%" r="50%">
      <stop offset="0%" stop-color="#E2E8F0" stop-opacity="0.32"/>
      <stop offset="60%" stop-color="#F59E0B" stop-opacity="0.08"/>
      <stop offset="100%" stop-color="#07080A" stop-opacity="0"/>
    </radialGradient>
  </defs>

  <rect width="1200" height="675" fill="url(#bg-2025-01-01-search-central-live-is-returning-to-brazil-1a9b6e8364)"/>
  <line x1="0" y1="337.5" x2="1200" y2="337.5" stroke="rgba(255,255,255,0.04)" stroke-width="1" stroke-dasharray="4 8"/>
  <line x1="600" y1="0" x2="600" y2="675" stroke="rgba(255,255,255,0.05)" stroke-width="1" stroke-dasharray="4 8"/>

  <circle cx="600" cy="337.5" r="272" fill="none" stroke="rgba(255,255,255,0.025)" stroke-width="1"/>
  <circle cx="600" cy="337.5" r="195" fill="none" stroke="rgba(255,255,255,0.04)" stroke-width="1" stroke-dasharray="6 6"/>
  <circle cx="600" cy="337.5" r="144" fill="url(#glow-2025-01-01-search-central-live-is-returning-to-brazil-1a9b6e8364)" stroke="rgba(245, 158, 11, 0.25)" stroke-width="1.5"/>
  <circle cx="600" cy="337.5" r="48" fill="none" stroke="#E2E8F0" stroke-width="2"/>
  <circle cx="600" cy="337.5" r="7" fill="#E2E8F0"/>

  <line x1="456" y1="337.5" x2="330" y2="337.5" stroke="#E2E8F0" stroke-width="1.5"/>
  <line x1="744" y1="337.5" x2="870" y2="337.5" stroke="#E2E8F0" stroke-width="1.5"/>
  <circle cx="330" cy="337.5" r="5" fill="#F59E0B"/>
  <circle cx="870" cy="337.5" r="5" fill="#F59E0B"/>

  <line x1="600" y1="193.5" x2="600" y2="92.5" stroke="#F59E0B" stroke-width="1.5"/>
  <line x1="600" y1="481.5" x2="600" y2="582.5" stroke="#F59E0B" stroke-width="1.5"/>
  <circle cx="600" cy="92.5" r="4" fill="#E2E8F0"/>
  <circle cx="600" cy="582.5" r="4" fill="#E2E8F0"/>

  <line x1="566.1" y1="303.6" x2="448.8" y2="186.3" stroke="rgba(255,255,255,0.2)" stroke-width="1.2"/>
  <line x1="633.9" y1="303.6" x2="751.2" y2="186.3" stroke="rgba(255,255,255,0.2)" stroke-width="1.2"/>
  <line x1="566.1" y1="371.4" x2="448.8" y2="488.7" stroke="rgba(255,255,255,0.2)" stroke-width="1.2"/>
  <line x1="633.9" y1="371.4" x2="751.2" y2="488.7" stroke="rgba(255,255,255,0.2)" stroke-width="1.2"/>

  <circle cx="448.8" cy="186.3" r="4" fill="#E2E8F0"/>
  <circle cx="751.2" cy="186.3" r="4" fill="#E2E8F0"/>
  <circle cx="448.8" cy="488.7" r="4" fill="#F59E0B"/>
  <circle cx="751.2" cy="488.7" r="4" fill="#F59E0B"/>

  <polygon points="528.0,193.5 672.0,193.5 744.0,337.5 672.0,481.5 528.0,481.5 456.0,337.5" fill="none" stroke="rgba(255,255,255,0.06)" stroke-width="1"/>

  <path d="M48 68 V48 H68 M1132 48 H1152 V68 M1152 607 V627 H1132 M68 627 H48 V607" stroke="rgba(255,255,255,0.18)" stroke-width="1.5" fill="none"/>

  <text x="56" y="88" font-family="ui-monospace,Menlo,monospace" font-size="11" font-weight="700" letter-spacing="2" fill="#E2E8F0">[ EEAT CONSENSUS // SYMMETRIC VECTOR CORE ]</text>
  <text x="1144" y="88" font-family="ui-monospace,Menlo,monospace" font-size="11" text-anchor="end" letter-spacing="1.5" fill="rgba(255,255,255,0.4)">REF-A5A2DA90</text>
  <text x="600" y="574" font-family="-apple-system,BlinkMacSystemFont,Segoe UI,Roboto,sans-serif" font-size="19" font-weight="600" text-anchor="middle" fill="#F8FAFC">Search Central Live is returning to Brazil: AI Search and Techni</text>
  <text x="600" y="608" font-family="ui-monospace,Menlo,monospace" font-size="11" text-anchor="middle" letter-spacing="3" fill="rgba(255,255,255,0.45)">HTML&amp;HTML AI SEARCH INTELLIGENCE // 2026-09-06</text>
</svg>