<svg xmlns="http://www.w3.org/2000/svg" viewBox="0 0 1200 675" width="1200" height="675" role="img" aria-labelledby="t-2026-06-30-rebrand-8a084089f0 d-2026-06-30-rebrand-8a084089f0">
  <title id="t-2026-06-30-rebrand-8a084089f0">HTML&amp;HTML AI Search Intelligence — RAG RETRIEVAL</title>
  <desc id="d-2026-06-30-rebrand-8a084089f0">Symmetrical vector blueprint for Rebrand: AI Search and Technical Web Architecture Analysis</desc>
  <defs>
    <linearGradient id="bg-2026-06-30-rebrand-8a084089f0" x1="0%" y1="0%" x2="100%" y2="100%">
      <stop offset="0%" stop-color="#07080A"/>
      <stop offset="50%" stop-color="#0A0C10"/>
      <stop offset="100%" stop-color="#0D1017"/>
    </linearGradient>
    <radialGradient id="glow-2026-06-30-rebrand-8a084089f0" cx="50%" cy="50%" r="50%">
      <stop offset="0%" stop-color="#F43F5E" stop-opacity="0.32"/>
      <stop offset="60%" stop-color="#38BDF8" stop-opacity="0.08"/>
      <stop offset="100%" stop-color="#07080A" stop-opacity="0"/>
    </radialGradient>
  </defs>

  <rect width="1200" height="675" fill="url(#bg-2026-06-30-rebrand-8a084089f0)"/>
  <line x1="0" y1="337.5" x2="1200" y2="337.5" stroke="rgba(255,255,255,0.04)" stroke-width="1" stroke-dasharray="4 8"/>
  <line x1="600" y1="0" x2="600" y2="675" stroke="rgba(255,255,255,0.05)" stroke-width="1" stroke-dasharray="4 8"/>

  <circle cx="600" cy="337.5" r="263" fill="none" stroke="rgba(255,255,255,0.025)" stroke-width="1"/>
  <circle cx="600" cy="337.5" r="211" fill="none" stroke="rgba(255,255,255,0.04)" stroke-width="1" stroke-dasharray="6 6"/>
  <circle cx="600" cy="337.5" r="134" fill="url(#glow-2026-06-30-rebrand-8a084089f0)" stroke="rgba(244, 63, 94, 0.25)" stroke-width="1.5"/>
  <circle cx="600" cy="337.5" r="60" fill="none" stroke="#F43F5E" stroke-width="2"/>
  <circle cx="600" cy="337.5" r="7" fill="#F43F5E"/>

  <line x1="466" y1="337.5" x2="314" y2="337.5" stroke="#F43F5E" stroke-width="1.5"/>
  <line x1="734" y1="337.5" x2="886" y2="337.5" stroke="#F43F5E" stroke-width="1.5"/>
  <circle cx="314" cy="337.5" r="5" fill="#38BDF8"/>
  <circle cx="886" cy="337.5" r="5" fill="#38BDF8"/>

  <line x1="600" y1="203.5" x2="600" y2="76.5" stroke="#38BDF8" stroke-width="1.5"/>
  <line x1="600" y1="471.5" x2="600" y2="598.5" stroke="#38BDF8" stroke-width="1.5"/>
  <circle cx="600" cy="76.5" r="4" fill="#F43F5E"/>
  <circle cx="600" cy="598.5" r="4" fill="#F43F5E"/>

  <line x1="557.6" y1="295.1" x2="459.3" y2="196.8" stroke="rgba(255,255,255,0.2)" stroke-width="1.2"/>
  <line x1="642.4" y1="295.1" x2="740.7" y2="196.8" stroke="rgba(255,255,255,0.2)" stroke-width="1.2"/>
  <line x1="557.6" y1="379.9" x2="459.3" y2="478.2" stroke="rgba(255,255,255,0.2)" stroke-width="1.2"/>
  <line x1="642.4" y1="379.9" x2="740.7" y2="478.2" stroke="rgba(255,255,255,0.2)" stroke-width="1.2"/>

  <circle cx="459.3" cy="196.8" r="4" fill="#F43F5E"/>
  <circle cx="740.7" cy="196.8" r="4" fill="#F43F5E"/>
  <circle cx="459.3" cy="478.2" r="4" fill="#38BDF8"/>
  <circle cx="740.7" cy="478.2" r="4" fill="#38BDF8"/>

  <polygon points="533.0,203.5 667.0,203.5 734.0,337.5 667.0,471.5 533.0,471.5 466.0,337.5" fill="none" stroke="rgba(255,255,255,0.06)" stroke-width="1"/>

  <path d="M48 68 V48 H68 M1132 48 H1152 V68 M1152 607 V627 H1132 M68 627 H48 V607" stroke="rgba(255,255,255,0.18)" stroke-width="1.5" fill="none"/>

  <text x="56" y="88" font-family="ui-monospace,Menlo,monospace" font-size="11" font-weight="700" letter-spacing="2" fill="#F43F5E">[ RAG RETRIEVAL // SYMMETRIC VECTOR CORE ]</text>
  <text x="1144" y="88" font-family="ui-monospace,Menlo,monospace" font-size="11" text-anchor="end" letter-spacing="1.5" fill="rgba(255,255,255,0.4)">REF-F1DC1DD8</text>
  <text x="600" y="574" font-family="-apple-system,BlinkMacSystemFont,Segoe UI,Roboto,sans-serif" font-size="19" font-weight="600" text-anchor="middle" fill="#F8FAFC">Rebrand: AI Search and Technical Web Architecture Analysis</text>
  <text x="600" y="608" font-family="ui-monospace,Menlo,monospace" font-size="11" text-anchor="middle" letter-spacing="3" fill="rgba(255,255,255,0.45)">HTML&amp;HTML AI SEARCH INTELLIGENCE // 2026-09-06</text>
</svg>