<svg xmlns="http://www.w3.org/2000/svg" viewBox="0 0 1200 675" width="1200" height="675" role="img" aria-labelledby="t-2026-06-30-june-3-2019-core-quality-update-d128bf3b49 d-2026-06-30-june-3-2019-core-quality-update-d128bf3b49">
  <title id="t-2026-06-30-june-3-2019-core-quality-update-d128bf3b49">HTML&amp;HTML AI Search Intelligence — EEAT CONSENSUS</title>
  <desc id="d-2026-06-30-june-3-2019-core-quality-update-d128bf3b49">Symmetrical vector blueprint for June 3 2019 Core Quality Update: AI Search and Technical Web Architecture Analysis</desc>
  <defs>
    <linearGradient id="bg-2026-06-30-june-3-2019-core-quality-update-d128bf3b49" x1="0%" y1="0%" x2="100%" y2="100%">
      <stop offset="0%" stop-color="#07080A"/>
      <stop offset="50%" stop-color="#0A0C10"/>
      <stop offset="100%" stop-color="#0D1017"/>
    </linearGradient>
    <radialGradient id="glow-2026-06-30-june-3-2019-core-quality-update-d128bf3b49" cx="50%" cy="50%" r="50%">
      <stop offset="0%" stop-color="#E2E8F0" stop-opacity="0.32"/>
      <stop offset="60%" stop-color="#F59E0B" stop-opacity="0.08"/>
      <stop offset="100%" stop-color="#07080A" stop-opacity="0"/>
    </radialGradient>
  </defs>

  <rect width="1200" height="675" fill="url(#bg-2026-06-30-june-3-2019-core-quality-update-d128bf3b49)"/>
  <line x1="0" y1="337.5" x2="1200" y2="337.5" stroke="rgba(255,255,255,0.04)" stroke-width="1" stroke-dasharray="4 8"/>
  <line x1="600" y1="0" x2="600" y2="675" stroke="rgba(255,255,255,0.05)" stroke-width="1" stroke-dasharray="4 8"/>

  <circle cx="600" cy="337.5" r="256" fill="none" stroke="rgba(255,255,255,0.025)" stroke-width="1"/>
  <circle cx="600" cy="337.5" r="189" fill="none" stroke="rgba(255,255,255,0.04)" stroke-width="1" stroke-dasharray="6 6"/>
  <circle cx="600" cy="337.5" r="114" fill="url(#glow-2026-06-30-june-3-2019-core-quality-update-d128bf3b49)" stroke="rgba(245, 158, 11, 0.25)" stroke-width="1.5"/>
  <circle cx="600" cy="337.5" r="57" fill="none" stroke="#E2E8F0" stroke-width="2"/>
  <circle cx="600" cy="337.5" r="7" fill="#E2E8F0"/>

  <line x1="486" y1="337.5" x2="336" y2="337.5" stroke="#E2E8F0" stroke-width="1.5"/>
  <line x1="714" y1="337.5" x2="864" y2="337.5" stroke="#E2E8F0" stroke-width="1.5"/>
  <circle cx="336" cy="337.5" r="5" fill="#F59E0B"/>
  <circle cx="864" cy="337.5" r="5" fill="#F59E0B"/>

  <line x1="600" y1="223.5" x2="600" y2="98.5" stroke="#F59E0B" stroke-width="1.5"/>
  <line x1="600" y1="451.5" x2="600" y2="576.5" stroke="#F59E0B" stroke-width="1.5"/>
  <circle cx="600" cy="98.5" r="4" fill="#E2E8F0"/>
  <circle cx="600" cy="576.5" r="4" fill="#E2E8F0"/>

  <line x1="559.7" y1="297.2" x2="480.3" y2="217.8" stroke="rgba(255,255,255,0.2)" stroke-width="1.2"/>
  <line x1="640.3" y1="297.2" x2="719.7" y2="217.8" stroke="rgba(255,255,255,0.2)" stroke-width="1.2"/>
  <line x1="559.7" y1="377.8" x2="480.3" y2="457.2" stroke="rgba(255,255,255,0.2)" stroke-width="1.2"/>
  <line x1="640.3" y1="377.8" x2="719.7" y2="457.2" stroke="rgba(255,255,255,0.2)" stroke-width="1.2"/>

  <circle cx="480.3" cy="217.8" r="4" fill="#E2E8F0"/>
  <circle cx="719.7" cy="217.8" r="4" fill="#E2E8F0"/>
  <circle cx="480.3" cy="457.2" r="4" fill="#F59E0B"/>
  <circle cx="719.7" cy="457.2" r="4" fill="#F59E0B"/>

  <polygon points="543.0,223.5 657.0,223.5 714.0,337.5 657.0,451.5 543.0,451.5 486.0,337.5" fill="none" stroke="rgba(255,255,255,0.06)" stroke-width="1"/>

  <path d="M48 68 V48 H68 M1132 48 H1152 V68 M1152 607 V627 H1132 M68 627 H48 V607" stroke="rgba(255,255,255,0.18)" stroke-width="1.5" fill="none"/>

  <text x="56" y="88" font-family="ui-monospace,Menlo,monospace" font-size="11" font-weight="700" letter-spacing="2" fill="#E2E8F0">[ EEAT CONSENSUS // SYMMETRIC VECTOR CORE ]</text>
  <text x="1144" y="88" font-family="ui-monospace,Menlo,monospace" font-size="11" text-anchor="end" letter-spacing="1.5" fill="rgba(255,255,255,0.4)">REF-221BDA39</text>
  <text x="600" y="574" font-family="-apple-system,BlinkMacSystemFont,Segoe UI,Roboto,sans-serif" font-size="19" font-weight="600" text-anchor="middle" fill="#F8FAFC">June 3 2019 Core Quality Update: AI Search and Technical Web Arc</text>
  <text x="600" y="608" font-family="ui-monospace,Menlo,monospace" font-size="11" text-anchor="middle" letter-spacing="3" fill="rgba(255,255,255,0.45)">HTML&amp;HTML AI SEARCH INTELLIGENCE // 2026-09-06</text>
</svg>