<svg xmlns="http://www.w3.org/2000/svg" viewBox="0 0 1200 675" width="1200" height="675" role="img" aria-labelledby="t-2026-07-15-the-best-persona-tool-on-the-web-is-now-live-1f2b7321fd d-2026-07-15-the-best-persona-tool-on-the-web-is-now-live-1f2b7321fd">
  <title id="t-2026-07-15-the-best-persona-tool-on-the-web-is-now-live-1f2b7321fd">HTML&amp;HTML AI Search Intelligence — SCHEMA ENTITY</title>
  <desc id="d-2026-07-15-the-best-persona-tool-on-the-web-is-now-live-1f2b7321fd">Symmetrical vector blueprint for The Best Persona Tool On The Web Is Now Live: AI Search and Technical Web Architecture Analysis</desc>
  <defs>
    <linearGradient id="bg-2026-07-15-the-best-persona-tool-on-the-web-is-now-live-1f2b7321fd" x1="0%" y1="0%" x2="100%" y2="100%">
      <stop offset="0%" stop-color="#07080A"/>
      <stop offset="50%" stop-color="#0A0C10"/>
      <stop offset="100%" stop-color="#0D1017"/>
    </linearGradient>
    <radialGradient id="glow-2026-07-15-the-best-persona-tool-on-the-web-is-now-live-1f2b7321fd" cx="50%" cy="50%" r="50%">
      <stop offset="0%" stop-color="#84CC16" stop-opacity="0.32"/>
      <stop offset="60%" stop-color="#0284C7" stop-opacity="0.08"/>
      <stop offset="100%" stop-color="#07080A" stop-opacity="0"/>
    </radialGradient>
  </defs>

  <rect width="1200" height="675" fill="url(#bg-2026-07-15-the-best-persona-tool-on-the-web-is-now-live-1f2b7321fd)"/>
  <line x1="0" y1="337.5" x2="1200" y2="337.5" stroke="rgba(255,255,255,0.04)" stroke-width="1" stroke-dasharray="4 8"/>
  <line x1="600" y1="0" x2="600" y2="675" stroke="rgba(255,255,255,0.05)" stroke-width="1" stroke-dasharray="4 8"/>

  <circle cx="600" cy="337.5" r="273" fill="none" stroke="rgba(255,255,255,0.025)" stroke-width="1"/>
  <circle cx="600" cy="337.5" r="190" fill="none" stroke="rgba(255,255,255,0.04)" stroke-width="1" stroke-dasharray="6 6"/>
  <circle cx="600" cy="337.5" r="145" fill="url(#glow-2026-07-15-the-best-persona-tool-on-the-web-is-now-live-1f2b7321fd)" stroke="rgba(132, 204, 22, 0.25)" stroke-width="1.5"/>
  <circle cx="600" cy="337.5" r="53" fill="none" stroke="#84CC16" stroke-width="2"/>
  <circle cx="600" cy="337.5" r="7" fill="#84CC16"/>

  <line x1="455" y1="337.5" x2="335" y2="337.5" stroke="#84CC16" stroke-width="1.5"/>
  <line x1="745" y1="337.5" x2="865" y2="337.5" stroke="#84CC16" stroke-width="1.5"/>
  <circle cx="335" cy="337.5" r="5" fill="#0284C7"/>
  <circle cx="865" cy="337.5" r="5" fill="#0284C7"/>

  <line x1="600" y1="192.5" x2="600" y2="97.5" stroke="#0284C7" stroke-width="1.5"/>
  <line x1="600" y1="482.5" x2="600" y2="577.5" stroke="#0284C7" stroke-width="1.5"/>
  <circle cx="600" cy="97.5" r="4" fill="#84CC16"/>
  <circle cx="600" cy="577.5" r="4" fill="#84CC16"/>

  <line x1="562.5" y1="300.0" x2="447.8" y2="185.2" stroke="rgba(255,255,255,0.2)" stroke-width="1.2"/>
  <line x1="637.5" y1="300.0" x2="752.2" y2="185.2" stroke="rgba(255,255,255,0.2)" stroke-width="1.2"/>
  <line x1="562.5" y1="375.0" x2="447.8" y2="489.8" stroke="rgba(255,255,255,0.2)" stroke-width="1.2"/>
  <line x1="637.5" y1="375.0" x2="752.2" y2="489.8" stroke="rgba(255,255,255,0.2)" stroke-width="1.2"/>

  <circle cx="447.8" cy="185.2" r="4" fill="#84CC16"/>
  <circle cx="752.2" cy="185.2" r="4" fill="#84CC16"/>
  <circle cx="447.8" cy="489.8" r="4" fill="#0284C7"/>
  <circle cx="752.2" cy="489.8" r="4" fill="#0284C7"/>

  <polygon points="527.5,192.5 672.5,192.5 745.0,337.5 672.5,482.5 527.5,482.5 455.0,337.5" fill="none" stroke="rgba(255,255,255,0.06)" stroke-width="1"/>

  <path d="M48 68 V48 H68 M1132 48 H1152 V68 M1152 607 V627 H1132 M68 627 H48 V607" stroke="rgba(255,255,255,0.18)" stroke-width="1.5" fill="none"/>

  <text x="56" y="88" font-family="ui-monospace,Menlo,monospace" font-size="11" font-weight="700" letter-spacing="2" fill="#84CC16">[ SCHEMA ENTITY // SYMMETRIC VECTOR CORE ]</text>
  <text x="1144" y="88" font-family="ui-monospace,Menlo,monospace" font-size="11" text-anchor="end" letter-spacing="1.5" fill="rgba(255,255,255,0.4)">REF-DBEADC45</text>
  <text x="600" y="574" font-family="-apple-system,BlinkMacSystemFont,Segoe UI,Roboto,sans-serif" font-size="19" font-weight="600" text-anchor="middle" fill="#F8FAFC">The Best Persona Tool On The Web Is Now Live: AI Search and Tech</text>
  <text x="600" y="608" font-family="ui-monospace,Menlo,monospace" font-size="11" text-anchor="middle" letter-spacing="3" fill="rgba(255,255,255,0.45)">HTML&amp;HTML AI SEARCH INTELLIGENCE // 2026-09-06</text>
</svg>