<svg xmlns="http://www.w3.org/2000/svg" viewBox="0 0 1200 675" width="1200" height="675" role="img" aria-labelledby="t-2026-08-15-how-nvidia-scales-expertise-with-chatgpt-work-baf07daff5 d-2026-08-15-how-nvidia-scales-expertise-with-chatgpt-work-baf07daff5">
  <title id="t-2026-08-15-how-nvidia-scales-expertise-with-chatgpt-work-baf07daff5">HTML&amp;HTML AI Search Intelligence — SCHEMA ENTITY</title>
  <desc id="d-2026-08-15-how-nvidia-scales-expertise-with-chatgpt-work-baf07daff5">Symmetrical vector blueprint for How NVIDIA scales expertise with ChatGPT Work: AI Search and Technical Web Architecture Analysis</desc>
  <defs>
    <linearGradient id="bg-2026-08-15-how-nvidia-scales-expertise-with-chatgpt-work-baf07daff5" x1="0%" y1="0%" x2="100%" y2="100%">
      <stop offset="0%" stop-color="#07080A"/>
      <stop offset="50%" stop-color="#0A0C10"/>
      <stop offset="100%" stop-color="#0D1017"/>
    </linearGradient>
    <radialGradient id="glow-2026-08-15-how-nvidia-scales-expertise-with-chatgpt-work-baf07daff5" cx="50%" cy="50%" r="50%">
      <stop offset="0%" stop-color="#84CC16" stop-opacity="0.32"/>
      <stop offset="60%" stop-color="#0284C7" stop-opacity="0.08"/>
      <stop offset="100%" stop-color="#07080A" stop-opacity="0"/>
    </radialGradient>
  </defs>

  <rect width="1200" height="675" fill="url(#bg-2026-08-15-how-nvidia-scales-expertise-with-chatgpt-work-baf07daff5)"/>
  <line x1="0" y1="337.5" x2="1200" y2="337.5" stroke="rgba(255,255,255,0.04)" stroke-width="1" stroke-dasharray="4 8"/>
  <line x1="600" y1="0" x2="600" y2="675" stroke="rgba(255,255,255,0.05)" stroke-width="1" stroke-dasharray="4 8"/>

  <circle cx="600" cy="337.5" r="271" fill="none" stroke="rgba(255,255,255,0.025)" stroke-width="1"/>
  <circle cx="600" cy="337.5" r="187" fill="none" stroke="rgba(255,255,255,0.04)" stroke-width="1" stroke-dasharray="6 6"/>
  <circle cx="600" cy="337.5" r="117" fill="url(#glow-2026-08-15-how-nvidia-scales-expertise-with-chatgpt-work-baf07daff5)" stroke="rgba(132, 204, 22, 0.25)" stroke-width="1.5"/>
  <circle cx="600" cy="337.5" r="51" fill="none" stroke="#84CC16" stroke-width="2"/>
  <circle cx="600" cy="337.5" r="7" fill="#84CC16"/>

  <line x1="483" y1="337.5" x2="338" y2="337.5" stroke="#84CC16" stroke-width="1.5"/>
  <line x1="717" y1="337.5" x2="862" y2="337.5" stroke="#84CC16" stroke-width="1.5"/>
  <circle cx="338" cy="337.5" r="5" fill="#0284C7"/>
  <circle cx="862" cy="337.5" r="5" fill="#0284C7"/>

  <line x1="600" y1="220.5" x2="600" y2="100.5" stroke="#0284C7" stroke-width="1.5"/>
  <line x1="600" y1="454.5" x2="600" y2="574.5" stroke="#0284C7" stroke-width="1.5"/>
  <circle cx="600" cy="100.5" r="4" fill="#84CC16"/>
  <circle cx="600" cy="574.5" r="4" fill="#84CC16"/>

  <line x1="563.9" y1="301.4" x2="477.1" y2="214.6" stroke="rgba(255,255,255,0.2)" stroke-width="1.2"/>
  <line x1="636.1" y1="301.4" x2="722.9" y2="214.6" stroke="rgba(255,255,255,0.2)" stroke-width="1.2"/>
  <line x1="563.9" y1="373.6" x2="477.1" y2="460.4" stroke="rgba(255,255,255,0.2)" stroke-width="1.2"/>
  <line x1="636.1" y1="373.6" x2="722.9" y2="460.4" stroke="rgba(255,255,255,0.2)" stroke-width="1.2"/>

  <circle cx="477.1" cy="214.6" r="4" fill="#84CC16"/>
  <circle cx="722.9" cy="214.6" r="4" fill="#84CC16"/>
  <circle cx="477.1" cy="460.4" r="4" fill="#0284C7"/>
  <circle cx="722.9" cy="460.4" r="4" fill="#0284C7"/>

  <polygon points="541.5,220.5 658.5,220.5 717.0,337.5 658.5,454.5 541.5,454.5 483.0,337.5" fill="none" stroke="rgba(255,255,255,0.06)" stroke-width="1"/>

  <path d="M48 68 V48 H68 M1132 48 H1152 V68 M1152 607 V627 H1132 M68 627 H48 V607" stroke="rgba(255,255,255,0.18)" stroke-width="1.5" fill="none"/>

  <text x="56" y="88" font-family="ui-monospace,Menlo,monospace" font-size="11" font-weight="700" letter-spacing="2" fill="#84CC16">[ SCHEMA ENTITY // SYMMETRIC VECTOR CORE ]</text>
  <text x="1144" y="88" font-family="ui-monospace,Menlo,monospace" font-size="11" text-anchor="end" letter-spacing="1.5" fill="rgba(255,255,255,0.4)">REF-DCA502D7</text>
  <text x="600" y="574" font-family="-apple-system,BlinkMacSystemFont,Segoe UI,Roboto,sans-serif" font-size="19" font-weight="600" text-anchor="middle" fill="#F8FAFC">How NVIDIA scales expertise with ChatGPT Work: AI Search and Tec</text>
  <text x="600" y="608" font-family="ui-monospace,Menlo,monospace" font-size="11" text-anchor="middle" letter-spacing="3" fill="rgba(255,255,255,0.45)">HTML&amp;HTML AI SEARCH INTELLIGENCE // 2026-09-06</text>
</svg>