<svg xmlns="http://www.w3.org/2000/svg" viewBox="0 0 1200 675" width="1200" height="675" role="img" aria-labelledby="t-2026-08-15-how-ringcentral-builds-ai-native-work-from-enginee-9bafa93fe0 d-2026-08-15-how-ringcentral-builds-ai-native-work-from-enginee-9bafa93fe0">
  <title id="t-2026-08-15-how-ringcentral-builds-ai-native-work-from-enginee-9bafa93fe0">HTML&amp;HTML AI Search Intelligence — SITEMAP DISCOVERY</title>
  <desc id="d-2026-08-15-how-ringcentral-builds-ai-native-work-from-enginee-9bafa93fe0">Symmetrical vector blueprint for How RingCentral builds AI-native work from engineering to ops: AI Search and Technical Web Architecture Analysis</desc>
  <defs>
    <linearGradient id="bg-2026-08-15-how-ringcentral-builds-ai-native-work-from-enginee-9bafa93fe0" x1="0%" y1="0%" x2="100%" y2="100%">
      <stop offset="0%" stop-color="#07080A"/>
      <stop offset="50%" stop-color="#0A0C10"/>
      <stop offset="100%" stop-color="#0D1017"/>
    </linearGradient>
    <radialGradient id="glow-2026-08-15-how-ringcentral-builds-ai-native-work-from-enginee-9bafa93fe0" cx="50%" cy="50%" r="50%">
      <stop offset="0%" stop-color="#06B6D4" stop-opacity="0.32"/>
      <stop offset="60%" stop-color="#3B82F6" stop-opacity="0.08"/>
      <stop offset="100%" stop-color="#07080A" stop-opacity="0"/>
    </radialGradient>
  </defs>

  <rect width="1200" height="675" fill="url(#bg-2026-08-15-how-ringcentral-builds-ai-native-work-from-enginee-9bafa93fe0)"/>
  <line x1="0" y1="337.5" x2="1200" y2="337.5" stroke="rgba(255,255,255,0.04)" stroke-width="1" stroke-dasharray="4 8"/>
  <line x1="600" y1="0" x2="600" y2="675" stroke="rgba(255,255,255,0.05)" stroke-width="1" stroke-dasharray="4 8"/>

  <circle cx="600" cy="337.5" r="262" fill="none" stroke="rgba(255,255,255,0.025)" stroke-width="1"/>
  <circle cx="600" cy="337.5" r="191" fill="none" stroke="rgba(255,255,255,0.04)" stroke-width="1" stroke-dasharray="6 6"/>
  <circle cx="600" cy="337.5" r="141" fill="url(#glow-2026-08-15-how-ringcentral-builds-ai-native-work-from-enginee-9bafa93fe0)" stroke="rgba(6, 182, 212, 0.25)" stroke-width="1.5"/>
  <circle cx="600" cy="337.5" r="63" fill="none" stroke="#06B6D4" stroke-width="2"/>
  <circle cx="600" cy="337.5" r="7" fill="#06B6D4"/>

  <line x1="459" y1="337.5" x2="334" y2="337.5" stroke="#06B6D4" stroke-width="1.5"/>
  <line x1="741" y1="337.5" x2="866" y2="337.5" stroke="#06B6D4" stroke-width="1.5"/>
  <circle cx="334" cy="337.5" r="5" fill="#3B82F6"/>
  <circle cx="866" cy="337.5" r="5" fill="#3B82F6"/>

  <line x1="600" y1="196.5" x2="600" y2="96.5" stroke="#3B82F6" stroke-width="1.5"/>
  <line x1="600" y1="478.5" x2="600" y2="578.5" stroke="#3B82F6" stroke-width="1.5"/>
  <circle cx="600" cy="96.5" r="4" fill="#06B6D4"/>
  <circle cx="600" cy="578.5" r="4" fill="#06B6D4"/>

  <line x1="555.5" y1="293.0" x2="451.9" y2="189.4" stroke="rgba(255,255,255,0.2)" stroke-width="1.2"/>
  <line x1="644.5" y1="293.0" x2="748.0" y2="189.4" stroke="rgba(255,255,255,0.2)" stroke-width="1.2"/>
  <line x1="555.5" y1="382.0" x2="451.9" y2="485.6" stroke="rgba(255,255,255,0.2)" stroke-width="1.2"/>
  <line x1="644.5" y1="382.0" x2="748.0" y2="485.6" stroke="rgba(255,255,255,0.2)" stroke-width="1.2"/>

  <circle cx="451.9" cy="189.4" r="4" fill="#06B6D4"/>
  <circle cx="748.0" cy="189.4" r="4" fill="#06B6D4"/>
  <circle cx="451.9" cy="485.6" r="4" fill="#3B82F6"/>
  <circle cx="748.0" cy="485.6" r="4" fill="#3B82F6"/>

  <polygon points="529.5,196.5 670.5,196.5 741.0,337.5 670.5,478.5 529.5,478.5 459.0,337.5" fill="none" stroke="rgba(255,255,255,0.06)" stroke-width="1"/>

  <path d="M48 68 V48 H68 M1132 48 H1152 V68 M1152 607 V627 H1132 M68 627 H48 V607" stroke="rgba(255,255,255,0.18)" stroke-width="1.5" fill="none"/>

  <text x="56" y="88" font-family="ui-monospace,Menlo,monospace" font-size="11" font-weight="700" letter-spacing="2" fill="#06B6D4">[ SITEMAP DISCOVERY // SYMMETRIC VECTOR CORE ]</text>
  <text x="1144" y="88" font-family="ui-monospace,Menlo,monospace" font-size="11" text-anchor="end" letter-spacing="1.5" fill="rgba(255,255,255,0.4)">REF-8C8B0917</text>
  <text x="600" y="574" font-family="-apple-system,BlinkMacSystemFont,Segoe UI,Roboto,sans-serif" font-size="19" font-weight="600" text-anchor="middle" fill="#F8FAFC">How RingCentral builds AI-native work from engineering to ops: A</text>
  <text x="600" y="608" font-family="ui-monospace,Menlo,monospace" font-size="11" text-anchor="middle" letter-spacing="3" fill="rgba(255,255,255,0.45)">HTML&amp;HTML AI SEARCH INTELLIGENCE // 2026-09-06</text>
</svg>