<svg xmlns="http://www.w3.org/2000/svg" viewBox="0 0 1200 675" width="1200" height="675" role="img" aria-labelledby="t-2026-08-15-openai-appoints-dali-rajic-as-chief-revenue-office-6eaab463a5 d-2026-08-15-openai-appoints-dali-rajic-as-chief-revenue-office-6eaab463a5">
  <title id="t-2026-08-15-openai-appoints-dali-rajic-as-chief-revenue-office-6eaab463a5">HTML&amp;HTML AI Search Intelligence — AAO AGENT</title>
  <desc id="d-2026-08-15-openai-appoints-dali-rajic-as-chief-revenue-office-6eaab463a5">Symmetrical vector blueprint for OpenAI appoints Dali Rajic as Chief Revenue Officer: AI Search and Technical Web Architecture Analysis</desc>
  <defs>
    <linearGradient id="bg-2026-08-15-openai-appoints-dali-rajic-as-chief-revenue-office-6eaab463a5" x1="0%" y1="0%" x2="100%" y2="100%">
      <stop offset="0%" stop-color="#07080A"/>
      <stop offset="50%" stop-color="#0A0C10"/>
      <stop offset="100%" stop-color="#0D1017"/>
    </linearGradient>
    <radialGradient id="glow-2026-08-15-openai-appoints-dali-rajic-as-chief-revenue-office-6eaab463a5" cx="50%" cy="50%" r="50%">
      <stop offset="0%" stop-color="#10B981" stop-opacity="0.32"/>
      <stop offset="60%" stop-color="#14B8A6" stop-opacity="0.08"/>
      <stop offset="100%" stop-color="#07080A" stop-opacity="0"/>
    </radialGradient>
  </defs>

  <rect width="1200" height="675" fill="url(#bg-2026-08-15-openai-appoints-dali-rajic-as-chief-revenue-office-6eaab463a5)"/>
  <line x1="0" y1="337.5" x2="1200" y2="337.5" stroke="rgba(255,255,255,0.04)" stroke-width="1" stroke-dasharray="4 8"/>
  <line x1="600" y1="0" x2="600" y2="675" stroke="rgba(255,255,255,0.05)" stroke-width="1" stroke-dasharray="4 8"/>

  <circle cx="600" cy="337.5" r="263" fill="none" stroke="rgba(255,255,255,0.025)" stroke-width="1"/>
  <circle cx="600" cy="337.5" r="214" fill="none" stroke="rgba(255,255,255,0.04)" stroke-width="1" stroke-dasharray="6 6"/>
  <circle cx="600" cy="337.5" r="142" fill="url(#glow-2026-08-15-openai-appoints-dali-rajic-as-chief-revenue-office-6eaab463a5)" stroke="rgba(16, 185, 129, 0.25)" stroke-width="1.5"/>
  <circle cx="600" cy="337.5" r="62" fill="none" stroke="#10B981" stroke-width="2"/>
  <circle cx="600" cy="337.5" r="7" fill="#10B981"/>

  <line x1="458" y1="337.5" x2="311" y2="337.5" stroke="#10B981" stroke-width="1.5"/>
  <line x1="742" y1="337.5" x2="889" y2="337.5" stroke="#10B981" stroke-width="1.5"/>
  <circle cx="311" cy="337.5" r="5" fill="#14B8A6"/>
  <circle cx="889" cy="337.5" r="5" fill="#14B8A6"/>

  <line x1="600" y1="195.5" x2="600" y2="73.5" stroke="#14B8A6" stroke-width="1.5"/>
  <line x1="600" y1="479.5" x2="600" y2="601.5" stroke="#14B8A6" stroke-width="1.5"/>
  <circle cx="600" cy="73.5" r="4" fill="#10B981"/>
  <circle cx="600" cy="601.5" r="4" fill="#10B981"/>

  <line x1="556.2" y1="293.7" x2="450.9" y2="188.4" stroke="rgba(255,255,255,0.2)" stroke-width="1.2"/>
  <line x1="643.8" y1="293.7" x2="749.1" y2="188.4" stroke="rgba(255,255,255,0.2)" stroke-width="1.2"/>
  <line x1="556.2" y1="381.3" x2="450.9" y2="486.6" stroke="rgba(255,255,255,0.2)" stroke-width="1.2"/>
  <line x1="643.8" y1="381.3" x2="749.1" y2="486.6" stroke="rgba(255,255,255,0.2)" stroke-width="1.2"/>

  <circle cx="450.9" cy="188.4" r="4" fill="#10B981"/>
  <circle cx="749.1" cy="188.4" r="4" fill="#10B981"/>
  <circle cx="450.9" cy="486.6" r="4" fill="#14B8A6"/>
  <circle cx="749.1" cy="486.6" r="4" fill="#14B8A6"/>

  <polygon points="529.0,195.5 671.0,195.5 742.0,337.5 671.0,479.5 529.0,479.5 458.0,337.5" fill="none" stroke="rgba(255,255,255,0.06)" stroke-width="1"/>

  <path d="M48 68 V48 H68 M1132 48 H1152 V68 M1152 607 V627 H1132 M68 627 H48 V607" stroke="rgba(255,255,255,0.18)" stroke-width="1.5" fill="none"/>

  <text x="56" y="88" font-family="ui-monospace,Menlo,monospace" font-size="11" font-weight="700" letter-spacing="2" fill="#10B981">[ AAO AGENT // SYMMETRIC VECTOR CORE ]</text>
  <text x="1144" y="88" font-family="ui-monospace,Menlo,monospace" font-size="11" text-anchor="end" letter-spacing="1.5" fill="rgba(255,255,255,0.4)">REF-CF1BDB4A</text>
  <text x="600" y="574" font-family="-apple-system,BlinkMacSystemFont,Segoe UI,Roboto,sans-serif" font-size="19" font-weight="600" text-anchor="middle" fill="#F8FAFC">OpenAI appoints Dali Rajic as Chief Revenue Officer: AI Search a</text>
  <text x="600" y="608" font-family="ui-monospace,Menlo,monospace" font-size="11" text-anchor="middle" letter-spacing="3" fill="rgba(255,255,255,0.45)">HTML&amp;HTML AI SEARCH INTELLIGENCE // 2026-09-06</text>
</svg>